<svg id="Layer_1" data-name="Layer 1" xmlns="http://www.w3.org/2000/svg" viewBox="0 0 60 62.75"><defs><style>.cls-1{fill:#ffffff;}</style></defs><path class="cls-1" d="M32.15,8.9a5,5,0,0,0-2.39,6.65,5.13,5.13,0,0,0,7.93,1.91A11.94,11.94,0,0,1,44.33,15a13.85,13.85,0,0,1,14,11,21,21,0,0,1,.36,5.24,1.07,1.07,0,0,0,.46-.72,16.27,16.27,0,0,0,.62-8.07C57.56,10.14,44,3.41,32.15,8.9Z"/><path class="cls-1" d="M27.76,53.92a5,5,0,0,0,2.81-5.61,5.15,5.15,0,0,0-8.23-3,11.78,11.78,0,0,1-9.28,2.41A14.1,14.1,0,0,1,1.33,34.47c-.05-.91,0-1.82,0-2.74l-.17,0c0,.08-.11.14-.15.22s-.15.38-.21.58a16.59,16.59,0,0,0-.26,9.21C3.32,52.9,16.07,59.2,27.76,53.92Z"/><path class="cls-1" d="M47.19,40.89a5.13,5.13,0,0,0-9,4.15,11.72,11.72,0,0,1-.73,6,13.63,13.63,0,0,1-14.76,8.08,22,22,0,0,1-6.67-2.43A12,12,0,0,0,19,59.58,18.44,18.44,0,0,0,43.32,56.3a20.15,20.15,0,0,0,5-11.26A5.09,5.09,0,0,0,47.19,40.89Z"/><path class="cls-1" d="M11.83,20.2a5.13,5.13,0,0,0,10-1.74,27.5,27.5,0,0,1-.14-3.28,13,13,0,0,1,11-11.46A15.43,15.43,0,0,1,42.78,5.59c.17.09.32.34.53.12s0-.39-.16-.52A14.86,14.86,0,0,0,41.5,3.57,17.82,17.82,0,0,0,30.76,0a21,21,0,0,0-3.49.37A19.93,19.93,0,0,0,11.67,17.3,6.33,6.33,0,0,0,11.83,20.2Z"/><path class="cls-1" d="M50.83,22.19a5.12,5.12,0,0,0-8,2.62,5.19,5.19,0,0,0,3.11,6.31A11.87,11.87,0,0,1,53.37,41a13.72,13.72,0,0,1-3.29,10.91,15.7,15.7,0,0,1-5.52,4.15A1.92,1.92,0,0,0,45.91,56c6.7-1.81,10.89-6.2,12.68-12.79a18.51,18.51,0,0,0-1.53-13.63A20.59,20.59,0,0,0,50.83,22.19Z"/><path class="cls-1" d="M9,40.51a5,5,0,0,0,5.6.49,4.82,4.82,0,0,0,2.71-4.74,4.83,4.83,0,0,0-3.19-4.52A12.57,12.57,0,0,1,6.87,16.89,15.15,15.15,0,0,1,14.53,7.1a2,2,0,0,0,1.25-.69c-.54.08-.82.1-1.1.17s-.72.22-1.08.33h0a18.84,18.84,0,0,0-1.93.62,16.93,16.93,0,0,0-8.52,7.61A19.71,19.71,0,0,0,9,40.51Z"/></svg>